<?xml version="1.0" encoding="UTF-8"?>
<svg id="avatar" xmlns="http://www.w3.org/2000/svg" viewBox="0 0 50.09 80.82">
  <defs>
    <style>
      .cls-1 {
        stroke-width: .5px;
      }

      .cls-1, .cls-2 {
        stroke: #8c8c8c;
      }

      .cls-1, .cls-2, .cls-3, .cls-4, .cls-5 {
        fill: none;
      }

      .cls-1, .cls-2, .cls-5 {
        stroke-linecap: round;
        stroke-miterlimit: 10;
      }

      .cls-6 {
        fill: #f9a03f;
      }

      .cls-7 {
        fill: #f48b97;
        opacity: .5;
      }

      .cls-2, .cls-5 {
        stroke-width: .75px;
      }

      .cls-8 {
        fill: #c87829;
      }

      .cls-9 {
        fill: #fedcb9;
      }

      .cls-10 {
        fill: #201a18;
      }

      .cls-3 {
        stroke: #c87829;
      }

      .cls-3, .cls-4 {
        stroke-linejoin: round;
      }

      .cls-11 {
        fill: #d2b491;
      }

      .cls-12 {
        fill: #2e2522;
        opacity: .53;
      }

      .cls-4 {
        stroke: #f5f5f5;
        stroke-width: .3px;
      }

      .cls-5 {
        stroke: #b4b4b5;
      }
    </style>
  </defs>
  <g id="body">
    <g id="body-base">
      <path class="cls-6" d="M4.65,80.79c0-2.39.29-6.58,3.86-11.03.58-.72,4.81-7.52,18.18-7.52s16.67,6.94,17.33,7.85c2.37,3.27,3.27,9.12,3.27,10.73l-42.64-.03Z"/>
    </g>
    <g id="neck">
      <rect id="neck-base" class="cls-9" x="20.65" y="42.27" width="11.38" height="23.13"/>
      <path id="shadow" class="cls-11" d="M20.65,57.64c0,.92,2.15,3.43,5.75,3.43,3.2,0,5.63-2.44,5.63-3.35v-5.34h-11.38v5.26Z"/>
    </g>
    <g id="collar">
      <polyline id="extra" class="cls-3" points="25.11 66.84 25.11 75.26 27.49 75.26 27.49 66.84"/>
      <path id="shadow-2" data-name="shadow" class="cls-8" d="M17.63,63.52c1.02,5.2,3.44,6.71,3.44,6.71,3.58-.32,5.27-4.83,5.27-4.83,0,0,1.82,4.43,5.37,4.85,0,0,2.76-1.77,3.33-6.81,0,0-6.69,1.96-8.7,1.97s-8.71-1.88-8.71-1.88Z"/>
      <path id="left-collar" class="cls-6" d="M20.65,58.54c-.24,1.35-2.27,4.37-3.02,4.98.36,1.17,2.4,4.52,3.64,5.58,2.35.33,5.08-3.7,5.08-3.7-4.59-1.59-5.69-6.86-5.69-6.86Z"/>
      <path id="right-collar" class="cls-6" d="M32.03,58.54c.24,1.35,2.25,4.28,3.01,4.89-.36,1.17-2.4,4.62-3.64,5.69-2.35.33-5.06-3.72-5.06-3.72,4.59-1.59,5.69-6.86,5.69-6.86Z"/>
    </g>
    <g id="buttons">
      <circle id="button-2" class="cls-4" cx="26.34" cy="68.88" r=".24"/>
      <circle id="button-1" class="cls-4" cx="26.3" cy="72.69" r=".24"/>
    </g>
  </g>
  <g id="head">
    <path id="hair" class="cls-10" d="M25.04,0c-5.43-.05-10.53,1.57-13.91,3.49C5.71,6.57,1.71,14.4.71,19.18s-.97,12.57.41,17.61c2.96,10.73,10.34,13.11,12.24,13.75,7.39,2.48,23.84,1.5,25.79.1,3.14-2.25,7.57-1.75,9.61-10.12,1.14-4.68,1.6-12.6,1.14-19.21-.46-6.63-3.96-11.97-9.2-16.07C35.92,1.5,29.37.04,25.04,0Z"/>
    <g id="face">
      <g id="ears">
        <path id="left-ear" class="cls-9" d="M8.12,36.24c-1.9-.88-4.41-.23-5.76,1.52-1.68,2.17-1.22,5.61,1.13,7.16,1.97,1.3,4.7.88,6.18-.71,2.14-2.31,1.27-6.67-1.54-7.97Z"/>
        <path id="right-ear" class="cls-9" d="M45.4,36.08c2.59.08,4.53,2.38,4.51,4.83-.02,2.64-2.31,4.98-5.02,4.78-2.61-.19-4.52-2.66-4.3-5.2.2-2.4,2.27-4.49,4.81-4.4Z"/>
        <path id="right-ear-extra" class="cls-1" d="M4.28,40.07c1.51-.24,3.08.12,4.23.98"/>
        <path id="left-ear-extra" class="cls-1" d="M46.87,40.2c-.53-.25-1.16-.28-1.77-.18s-1.28.39-1.63.79"/>
      </g>
      <path id="face-base" class="cls-9" d="M7.78,35.85c.12,2-.55,8.51,4.07,13.36,3,3.15,7.83,4.71,14.96,4.71,6.81,0,11.19-1.8,13.93-4.67,3.83-4,3.98-9.14,4.11-13.4.08-2.68.04-16.66.04-16.66l-11.19-5.23-25.92,5.98v15.91Z"/>
      <path id="nose" class="cls-5" d="M24.98,36.6c.53.43,1.28.5,1.96.47.44-.02,1.06-.17,1.48-.47"/>
      <path id="smile" class="cls-2" d="M22.37,40.84c.57.51,1.14,1.03,2.11,1.33.79.24,1.39.4,2.4.4.72,0,1.95-.31,2.44-.52.88-.38,1.25-.73,1.7-1.28"/>
      <g id="eyes">
        <path id="right-eye" class="cls-10" d="M19.46,27.23c-1.02-.02-1.84,1.21-1.81,2.29.02,1.02.8,2.19,1.81,2.17,1.02-.02,1.75-1.21,1.75-2.23,0-1.03-.75-2.22-1.75-2.23Z"/>
        <path id="left-eye" class="cls-10" d="M34,27.23c-1.02-.02-1.84,1.21-1.81,2.29.02,1.02.8,2.19,1.81,2.17,1.02-.02,1.75-1.21,1.75-2.23,0-1.03-.75-2.22-1.75-2.23Z"/>
      </g>
      <g id="eyebrows">
        <path id="right-eyebrow" class="cls-1" d="M17.49,23.76c.81-.42,1.74-.57,2.65-.5-.34-.03,1.02-.02,2.61.76"/>
        <path id="left-eyebrow" class="cls-1" d="M30.95,23.39c1.27-.5,2.47-.56,3.07-.47.76.11,1.61.35,1.87.57"/>
      </g>
      <g id="blushs">
        <path id="right-blush" class="cls-7" d="M35.85,32.17c.69.07,1.23.94,1.26,1.71.03.98-.77,2.05-1.62,1.97-.69-.06-1.2-.85-1.27-1.54-.11-1.05.78-2.23,1.64-2.14Z"/>
        <path id="left-blush" class="cls-7" d="M17.64,32.16c-.77.07-1.35.98-1.35,1.78,0,1.07,1.06,2.1,1.94,1.91.69-.15,1.1-1.01,1.11-1.71,0-.98-.8-2.07-1.7-1.98Z"/>
      </g>
      <path id="glasses" class="cls-12" d="M44.23,25.7c.65,1.28,0,1.75-.15,2.27-.31,1.69-.78,5.58-1.76,7.02s-3.23,2.8-4.86,2.99c-4.28.49-6.92-1.71-8.57-5.42-.43-.96-1.06-3.95-1.8-4.18-2.36-.72-2.12,2.01-2.67,3.45-1.91,4.98-6.8,8.29-11.88,5.11-3.44-2.15-2.73-5.26-3.57-8.4-.25-.95-1.25-1.45-.79-2.71,3.32-.63,6.97-1.51,10.38-1.12,1.82.21,4.14,1.48,5.58,1.57.68.04,4.53.04,5.06-.03.96-.14,2.48-1.03,3.57-1.27,3.52-.77,8.04-.24,11.47.71ZM13.84,25.42c-3.55.48-4.18,2.21-3.83,5.55.44,4.27,3.33,6.83,7.68,6.36,2.89-.31,4.95-2.81,5.91-5.37,2.45-6.48-5.34-7.14-9.77-6.55ZM41.9,26.35c-1.65-1.4-7.08-1.16-9.14-.65-3.41.85-4.25,2.78-3.38,6.15,1.32,5.15,9.05,7.83,12.32,3.02,1.36-2,2.27-6.76.2-8.52Z"/>
    </g>
    <g id="forehair">
      <path id="hair-2" class="cls-10" d="M45.27,19.48l.13-6.5-12.38-.2c3.36,4.66,7.06,6.03,12.25,6.69Z"/>
      <path id="hair-1" class="cls-10" d="M34.17,12.16c-2.98,5.3-18.01,8.58-27.51,8.57l.21-8.78,27.3.21Z"/>
      <path id="hair-4" class="cls-10" d="M29.59,13.19c-.94,1.94-2.45,4.39-1.79,6.28.37-2.29,4.81-4.97,5.93-5.47l-4.14-.81Z"/>
      <path id="hair-3" class="cls-10" d="M32.2,12.03c-.4,1.02.09,6.58,4.44,8.21-1.37-1.52-2.92-4.29-1.57-6.65l-2.87-1.57Z"/>
    </g>
  </g>
</svg>